<?xml version="1.0" encoding="utf-8"?>
<!-- Generator: Adobe Illustrator 16.0.0, SVG Export Plug-In . SVG Version: 6.00 Build 0)  -->
<!DOCTYPE svg PUBLIC "-//W3C//DTD SVG 1.1//EN" "http://www.w3.org/Graphics/SVG/1.1/DTD/svg11.dtd">
<svg version="1.1" xmlns="http://www.w3.org/2000/svg" xmlns:xlink="http://www.w3.org/1999/xlink" x="0px" y="0px"
	 width="1116.511px" height="116.346px" viewBox="0 0 1116.511 116.346" enable-background="new 0 0 1116.511 116.346"
	 xml:space="preserve">
<g id="Capa_1" display="none">
</g>
<g id="Capa_2" display="none">
</g>
<g id="Capa_3">
	<g>
		<path d="M16.432,54.76c0-15.259,0-18.069-0.201-21.282c-0.199-3.413-1.004-5.02-4.316-5.722c-0.803-0.201-2.51-0.302-3.914-0.302
			c-1.105,0-1.707-0.2-1.707-0.903c0-0.702,0.703-0.903,2.209-0.903c5.32,0,11.645,0.301,14.455,0.301
			c3.111,0,9.436-0.301,15.459-0.301c12.549,0,29.314,0,40.256,11.444c5.02,5.22,9.738,13.552,9.738,25.498
			c0,12.649-5.32,22.286-10.943,28.009c-4.617,4.718-15.057,11.846-33.629,11.846c-3.613,0-7.73-0.302-11.545-0.603
			c-3.814-0.302-7.328-0.603-9.838-0.603c-1.104,0-3.313,0-5.723,0.101c-2.309,0-4.918,0.2-6.926,0.2
			c-1.305,0-2.008-0.301-2.008-1.004c0-0.502,0.4-0.803,1.605-0.803c1.506,0,2.711-0.201,3.615-0.401
			c2.008-0.401,2.51-2.61,2.91-5.521c0.502-4.216,0.502-12.146,0.502-21.383V54.76z M28.98,65.803c0,10.641,0.1,18.371,0.201,20.278
			c0.1,2.51,0.301,6.524,1.104,7.629c1.305,1.907,5.221,4.016,13.15,4.016c10.24,0,17.066-2.008,23.09-7.228
			c6.424-5.521,8.432-14.657,8.432-24.997c0-12.749-5.32-20.98-9.637-25.097c-9.236-8.834-20.68-10.039-28.51-10.039
			c-2.008,0-5.723,0.302-6.525,0.703c-0.904,0.401-1.205,0.903-1.205,2.008c-0.1,3.413-0.1,12.146-0.1,20.077V65.803z"/>
		<path d="M104.369,61.687c0-12.95,0-15.359-0.102-18.069c-0.201-2.912-1.004-3.815-3.814-4.618
			c-0.703-0.201-2.209-0.301-3.514-0.301c-0.902,0-1.506-0.302-1.506-0.904c0-0.602,0.703-0.803,2.008-0.803
			c4.617,0,10.24,0.201,12.047,0.201c3.012,0,11.043-0.201,13.754-0.201c5.621,0,12.045,0.502,16.764,3.614
			c2.51,1.706,6.225,6.023,6.225,11.745c0,6.324-3.615,11.946-12.248,18.873c7.83,9.637,14.055,17.367,19.375,22.688
			c4.92,4.919,8.031,5.32,9.438,5.621c0.902,0.201,1.404,0.201,2.107,0.201s1.104,0.502,1.104,0.903
			c0,0.703-0.602,0.903-1.707,0.903h-8.432c-4.918,0-7.328-0.502-9.637-1.706c-3.814-1.907-7.129-5.923-12.047-12.549
			c-3.514-4.617-7.229-10.34-8.332-11.645c-0.502-0.502-1.004-0.603-1.605-0.603l-7.932-0.201c-0.402,0-0.703,0.201-0.703,0.703
			v1.205c0,7.931,0.102,14.556,0.502,18.17c0.301,2.51,0.703,4.115,3.414,4.518c1.305,0.2,3.213,0.301,4.316,0.301
			c0.703,0,1.104,0.502,1.104,0.903c0,0.603-0.701,0.903-1.807,0.903c-5.119,0-12.447-0.301-13.752-0.301
			c-1.707,0-7.33,0.301-10.842,0.301c-1.105,0-1.707-0.301-1.707-0.903c0-0.401,0.301-0.903,1.404-0.903
			c1.307,0,2.309-0.101,3.113-0.301c1.807-0.402,2.309-2.008,2.609-4.518c0.402-3.614,0.402-10.34,0.402-18.17V61.687z
			 M115.611,68.313c0,0.903,0.201,1.204,0.803,1.506c1.908,0.602,4.518,0.803,6.727,0.803c3.514,0,4.719-0.301,6.225-1.405
			c2.711-1.907,5.723-5.622,5.723-12.649c0-12.046-8.232-15.158-13.453-15.158c-2.209,0-4.316,0.101-5.221,0.301
			c-0.602,0.201-0.803,0.502-0.803,1.205V68.313z"/>
		<path d="M177.047,79.957c-0.502,0-0.604,0.101-0.803,0.603l-4.719,11.544c-0.904,2.108-1.305,4.217-1.305,5.221
			c0,1.506,0.803,2.409,3.514,2.409h1.305c1.104,0,1.305,0.401,1.305,0.903c0,0.703-0.502,0.903-1.406,0.903
			c-2.91,0-7.025-0.301-9.838-0.301c-0.902,0-5.621,0.301-10.238,0.301c-1.105,0-1.607-0.2-1.607-0.903
			c0-0.502,0.303-0.903,1.004-0.903c0.805,0,1.807-0.101,2.611-0.101c4.016-0.603,5.521-3.212,7.328-7.529l23.088-53.306
			c1.004-2.409,1.707-3.413,2.611-3.413c1.305,0,1.707,0.804,2.609,2.711c2.107,4.718,16.865,39.251,22.486,52.201
			c3.414,7.73,5.924,8.834,7.529,9.136c1.305,0.2,2.309,0.301,3.313,0.301c0.805,0,1.205,0.301,1.205,0.903
			c0,0.703-0.502,0.903-3.814,0.903c-3.111,0-9.537,0-16.965-0.2c-1.607-0.101-2.611-0.101-2.611-0.703
			c0-0.502,0.201-0.803,1.105-0.903c0.602-0.101,1.205-0.903,0.803-1.907L198.73,80.56c-0.201-0.502-0.502-0.603-0.904-0.603
			H177.047z M195.92,75.239c0.4,0,0.502-0.201,0.4-0.502l-8.332-21.383c-0.1-0.302-0.201-0.804-0.4-0.804
			c-0.303,0-0.402,0.502-0.502,0.804l-8.533,21.282c-0.201,0.401,0,0.603,0.301,0.603H195.92z"/>
		<path d="M290.582,95.818c0,2.309,0,2.409-1.104,3.012c-5.924,2.911-14.656,3.814-21.584,3.814
			c-21.684,0-40.857-9.838-40.857-33.429c0-13.653,7.328-23.189,15.459-27.908c8.434-4.919,16.363-5.521,23.793-5.521
			c6.123,0,13.854,1.004,15.66,1.406c1.807,0.301,4.918,0.803,7.027,0.903c1.004,0.101,1.203,0.401,1.203,1.004
			c0,1.004-0.602,3.313-0.602,14.054c0,1.306-0.502,1.907-1.205,1.907c-0.602,0-0.803-0.401-0.902-1.104
			c-0.201-1.907-0.703-4.618-3.012-7.027c-2.611-2.711-9.236-6.525-19.174-6.525c-4.818,0-10.943,0.101-17.066,5.02
			c-4.92,4.016-8.131,10.34-8.131,20.78c0,18.371,11.846,31.723,30.719,31.723c2.309,0,4.115,0,6.223-0.903
			c1.305-0.603,1.707-1.506,1.707-3.012v-7.831c0-4.216,0-7.429-0.1-10.038c-0.102-2.911-1.004-3.814-3.814-4.618
			c-0.703-0.2-2.209-0.301-3.414-0.301c-0.803,0-1.406-0.401-1.406-0.903c0-0.703,0.703-0.804,1.908-0.804
			c4.617,0,10.941,0.201,13.553,0.201c2.811,0,7.428-0.201,10.34-0.201c1.205,0,1.807,0.101,1.807,0.804
			c0,0.502-0.502,0.903-1.104,0.903c-0.703,0-1.406,0.101-2.41,0.301c-2.41,0.401-3.313,1.606-3.414,4.618
			c-0.1,2.609-0.1,6.023-0.1,10.239V95.818z"/>
		<path d="M305.637,69.216c0-14.557,10.24-33.43,37.043-33.43c22.287,0,36.141,12.348,36.141,31.924
			c0,19.575-14.256,34.935-37.043,34.935C316.078,102.645,305.637,84.374,305.637,69.216z M365.67,70.822
			c0-18.873-11.344-30.519-25.6-30.519c-9.838,0-21.383,5.221-21.383,26.302c0,17.568,10.039,31.422,26.703,31.422
			C351.615,98.027,365.67,95.115,365.67,70.822z M358.943,20.93c0.602,1.204,0,1.505-0.502,1.505s-1.406-0.2-3.414,0
			c-5.521,0.703-13.451,3.916-17.166,5.923c-0.803,0.402-1.506,0.804-1.705,0.804c-0.201,0-0.604-0.201-0.604-0.603
			s0.402-0.803,0.904-1.305c4.016-3.815,14.555-11.646,16.162-12.649c1.004-0.702,1.707-0.903,2.008-0.903
			c0.703,0,0.902,0.302,1.404,1.205C356.836,16.312,357.738,18.219,358.943,20.93z"/>
		<path d="M400.803,89.896c0.201,6.626,1.305,8.633,3.012,9.235c1.506,0.502,3.213,0.603,4.617,0.603
			c1.004,0,1.506,0.401,1.506,0.903c0,0.703-0.803,0.903-2.008,0.903c-5.721,0-9.838-0.301-11.443-0.301
			c-0.803,0-5.02,0.301-9.537,0.301c-1.205,0-2.008-0.1-2.008-0.903c0-0.502,0.602-0.903,1.406-0.903
			c1.203,0,2.811-0.101,4.016-0.401c2.309-0.603,2.609-2.911,2.709-10.34l0.805-50.596c0-1.706,0.602-2.911,1.506-2.911
			c1.104,0,2.309,1.305,3.814,2.811c1.104,1.104,14.355,14.657,27.205,27.205c6.023,5.923,17.768,17.97,19.072,19.175h0.402
			l-0.904-37.947c-0.1-5.22-0.902-6.726-3.012-7.528c-1.305-0.502-3.412-0.502-4.617-0.502c-1.104,0-1.406-0.402-1.406-0.904
			c0-0.702,0.904-0.803,2.209-0.803c4.619,0,9.336,0.201,11.244,0.201c1.004,0,4.316-0.201,8.633-0.201
			c1.205,0,2.008,0.101,2.008,0.803c0,0.502-0.502,0.904-1.506,0.904c-0.902,0-1.605,0-2.711,0.301
			c-2.408,0.703-3.111,2.208-3.211,7.027L451.6,99.834c0,1.907-0.703,2.71-1.406,2.71c-1.506,0-2.711-0.903-3.613-1.807
			c-5.521-5.12-16.564-15.66-25.801-24.595c-9.637-9.236-18.973-19.576-20.68-21.082h-0.301L400.803,89.896z"/>
		<path d="M509.818,61.687c0-12.95,0-15.359-0.1-18.069c-0.201-2.912-1.004-3.815-3.814-4.618c-0.703-0.201-2.209-0.301-3.514-0.301
			c-0.904,0-1.506-0.302-1.506-0.904c0-0.602,0.701-0.803,2.008-0.803c4.617,0,10.238,0.201,12.748,0.201
			c2.711,0,9.035-0.201,14.355-0.201c11.043,0,25.9,0,35.537,9.737c4.418,4.417,8.332,11.545,8.332,21.684
			c0,10.742-4.617,18.873-9.637,23.792c-4.016,4.016-13.352,10.039-29.613,10.039c-3.213,0-7.027-0.301-10.541-0.502
			c-3.514-0.301-6.727-0.502-8.936-0.502c-1.004,0-2.91,0.101-5.02,0.101c-2.107,0.101-4.316,0.2-6.123,0.2
			c-1.104,0-1.707-0.301-1.707-0.903c0-0.401,0.301-0.903,1.406-0.903c1.305,0,2.309-0.101,3.111-0.301
			c1.807-0.402,2.309-2.008,2.611-4.518c0.4-3.614,0.4-10.34,0.4-18.17V61.687z M521.664,71.123c0,9.035,0.102,15.56,0.201,17.267
			c0.1,2.108,0.301,5.12,1.004,6.023c1.104,1.606,4.617,3.413,11.545,3.413c8.031,0,13.953-1.405,19.273-5.822
			c5.723-4.719,7.529-12.348,7.529-21.182c0-10.843-4.316-17.869-8.232-21.282c-8.131-7.229-17.768-8.132-24.695-8.132
			c-1.807,0-4.717,0.201-5.42,0.603c-0.803,0.301-1.104,0.702-1.104,1.706c-0.102,2.912-0.102,9.938-0.102,16.665V71.123z"/>
		<path d="M592.234,61.687c0-12.95,0-15.359-0.1-18.069c-0.201-2.912-1.004-3.815-3.814-4.618c-0.703-0.201-2.209-0.301-3.514-0.301
			c-0.904,0-1.506-0.302-1.506-0.904c0-0.602,0.701-0.803,2.008-0.803c4.617,0,10.238,0.201,12.748,0.201
			c2.811,0,22.387,0.1,24.094,0c1.605-0.101,3.012-0.402,3.715-0.502c0.502-0.101,1.004-0.402,1.404-0.402
			c0.502,0,0.604,0.402,0.604,0.804c0,0.603-0.502,1.606-0.703,5.521c-0.102,0.903-0.301,4.617-0.502,5.621
			c-0.102,0.401-0.301,1.405-1.004,1.405c-0.604,0-0.703-0.401-0.703-1.104c0-0.603-0.1-2.108-0.602-3.112
			c-0.703-1.506-1.406-2.711-5.822-3.112c-1.506-0.2-12.047-0.401-13.854-0.401c-0.402,0-0.604,0.301-0.604,0.803v21.082
			c0,0.502,0.102,0.903,0.604,0.903c2.008,0,13.451,0,15.459-0.201c2.107-0.2,3.313-0.502,4.217-1.305
			c0.701-0.603,1.004-1.104,1.404-1.104c0.402,0,0.703,0.401,0.703,0.903s-0.201,1.908-0.703,6.225
			c-0.201,1.706-0.4,5.119-0.4,5.722c0,0.703-0.102,1.907-0.904,1.907c-0.602,0-0.803-0.301-0.803-0.702
			c-0.102-0.903-0.102-2.008-0.301-3.112c-0.502-1.706-1.607-3.012-4.92-3.313c-1.605-0.201-11.645-0.401-13.854-0.401
			c-0.4,0-0.502,0.401-0.502,0.903v6.826c0,2.911-0.1,10.139,0,12.648c0.201,5.823,2.912,7.128,11.947,7.128
			c2.309,0,6.021-0.101,8.332-1.104c2.207-1.004,3.211-2.811,3.814-6.324c0.201-0.903,0.4-1.305,1.004-1.305
			c0.703,0,0.803,1.104,0.803,2.008c0,1.907-0.703,7.729-1.205,9.436c-0.602,2.209-1.404,2.209-4.719,2.209
			c-6.625,0-11.945-0.101-16.262-0.301c-4.316-0.101-7.629-0.201-10.24-0.201c-1.004,0-2.91,0.101-5.02,0.101
			c-2.107,0.101-4.316,0.2-6.123,0.2c-1.104,0-1.707-0.301-1.707-0.903c0-0.401,0.301-0.903,1.406-0.903
			c1.305,0,2.309-0.101,3.111-0.301c1.807-0.402,2.309-2.008,2.611-4.518c0.4-3.614,0.4-10.34,0.4-18.17V61.687z"/>
		<path d="M685.891,26.853c0.303-1.707,0.904-2.61,1.707-2.61s1.406,0.502,2.711,3.111l27.406,55.816l27.305-56.519
			c0.803-1.606,1.305-2.409,2.209-2.409c0.902,0,1.506,1.004,1.807,3.111l9.135,61.438c0.904,6.324,1.908,9.236,4.92,10.14
			c2.91,0.903,4.918,1.004,6.223,1.004c0.904,0,1.607,0.1,1.607,0.702c0,0.804-1.205,1.104-2.611,1.104
			c-2.51,0-16.361-0.201-20.377-0.502c-2.311-0.201-2.912-0.502-2.912-1.104c0-0.502,0.402-0.803,1.104-1.104
			c0.604-0.2,0.904-1.505,0.502-4.316l-6.023-43.668h-0.4l-21.885,44.772c-2.309,4.718-2.811,5.622-3.715,5.622
			c-0.902,0-1.906-2.008-3.514-5.02c-2.408-4.618-10.34-19.978-11.543-22.788c-0.904-2.108-6.928-13.954-10.441-21.483h-0.402
			l-5.219,39.151c-0.201,1.807-0.301,3.112-0.301,4.719c0,1.907,1.305,2.811,3.012,3.212c1.807,0.401,3.211,0.502,4.215,0.502
			c0.803,0,1.506,0.201,1.506,0.703c0,0.903-0.902,1.104-2.408,1.104c-4.217,0-8.734-0.301-10.541-0.301
			c-1.908,0-6.727,0.301-9.939,0.301c-1.004,0-1.807-0.2-1.807-1.104c0-0.502,0.604-0.703,1.607-0.703c0.803,0,1.506,0,3.012-0.301
			c2.811-0.603,3.613-4.518,4.115-7.931L685.891,26.853z"/>
		<path d="M789.689,79.957c-0.502,0-0.604,0.101-0.803,0.603l-4.719,11.544c-0.904,2.108-1.305,4.217-1.305,5.221
			c0,1.506,0.803,2.409,3.514,2.409h1.305c1.104,0,1.305,0.401,1.305,0.903c0,0.703-0.502,0.903-1.406,0.903
			c-2.91,0-7.025-0.301-9.838-0.301c-0.902,0-5.621,0.301-10.238,0.301c-1.105,0-1.607-0.2-1.607-0.903
			c0-0.502,0.303-0.903,1.004-0.903c0.805,0,1.807-0.101,2.611-0.101c4.016-0.603,5.521-3.212,7.328-7.529l23.088-53.306
			c1.004-2.409,1.707-3.413,2.611-3.413c1.305,0,1.707,0.804,2.609,2.711c2.107,4.718,16.865,39.251,22.486,52.201
			c3.414,7.73,5.924,8.834,7.529,9.136c1.305,0.2,2.309,0.301,3.313,0.301c0.805,0,1.205,0.301,1.205,0.903
			c0,0.703-0.502,0.903-3.814,0.903c-3.111,0-9.537,0-16.965-0.2c-1.607-0.101-2.611-0.101-2.611-0.703
			c0-0.502,0.201-0.803,1.105-0.903c0.602-0.101,1.205-0.903,0.803-1.907l-6.826-17.267c-0.201-0.502-0.502-0.603-0.904-0.603
			H789.689z M808.563,75.239c0.4,0,0.502-0.201,0.4-0.502l-8.332-21.383c-0.1-0.302-0.201-0.804-0.4-0.804
			c-0.303,0-0.402,0.502-0.502,0.804l-8.533,21.282c-0.201,0.401,0,0.603,0.301,0.603H808.563z"/>
		<path d="M849.316,61.687c0-12.95,0-15.359-0.1-18.069c-0.201-2.912-1.004-3.815-3.814-4.618c-0.703-0.201-2.209-0.301-3.514-0.301
			c-0.904,0-1.506-0.302-1.506-0.904c0-0.602,0.701-0.803,2.008-0.803c4.617,0,10.238,0.201,12.748,0.201
			c2.711,0,9.035-0.201,14.355-0.201c11.043,0,25.9,0,35.537,9.737c4.418,4.417,8.332,11.545,8.332,21.684
			c0,10.742-4.617,18.873-9.637,23.792c-4.016,4.016-13.352,10.039-29.613,10.039c-3.213,0-7.027-0.301-10.541-0.502
			c-3.514-0.301-6.727-0.502-8.936-0.502c-1.004,0-2.91,0.101-5.02,0.101c-2.107,0.101-4.316,0.2-6.123,0.2
			c-1.104,0-1.707-0.301-1.707-0.903c0-0.401,0.301-0.903,1.406-0.903c1.305,0,2.309-0.101,3.111-0.301
			c1.807-0.402,2.309-2.008,2.611-4.518c0.4-3.614,0.4-10.34,0.4-18.17V61.687z M861.162,71.123c0,9.035,0.102,15.56,0.201,17.267
			c0.1,2.108,0.301,5.12,1.004,6.023c1.104,1.606,4.617,3.413,11.545,3.413c8.031,0,13.953-1.405,19.273-5.822
			c5.723-4.719,7.529-12.348,7.529-21.182c0-10.843-4.316-17.869-8.232-21.282c-8.131-7.229-17.768-8.132-24.695-8.132
			c-1.807,0-4.717,0.201-5.42,0.603c-0.803,0.301-1.104,0.702-1.104,1.706c-0.102,2.912-0.102,9.938-0.102,16.665V71.123z"/>
		<path d="M931.732,61.687c0-12.95,0-15.359-0.1-18.069c-0.201-2.912-1.004-3.815-3.814-4.618c-0.703-0.201-2.209-0.301-3.514-0.301
			c-0.904,0-1.506-0.302-1.506-0.904c0-0.602,0.701-0.803,2.008-0.803c4.617,0,10.238,0.201,12.748,0.201
			c2.811,0,22.387,0.1,24.094,0c1.605-0.101,3.012-0.402,3.715-0.502c0.502-0.101,1.004-0.402,1.404-0.402
			c0.502,0,0.604,0.402,0.604,0.804c0,0.603-0.502,1.606-0.703,5.521c-0.102,0.903-0.301,4.617-0.502,5.621
			c-0.102,0.401-0.301,1.405-1.004,1.405c-0.604,0-0.703-0.401-0.703-1.104c0-0.603-0.1-2.108-0.602-3.112
			c-0.703-1.506-1.406-2.711-5.822-3.112c-1.506-0.2-12.047-0.401-13.854-0.401c-0.402,0-0.604,0.301-0.604,0.803v21.082
			c0,0.502,0.102,0.903,0.604,0.903c2.008,0,13.451,0,15.459-0.201c2.107-0.2,3.313-0.502,4.217-1.305
			c0.701-0.603,1.004-1.104,1.404-1.104c0.402,0,0.703,0.401,0.703,0.903s-0.201,1.908-0.703,6.225
			c-0.201,1.706-0.4,5.119-0.4,5.722c0,0.703-0.102,1.907-0.904,1.907c-0.602,0-0.803-0.301-0.803-0.702
			c-0.102-0.903-0.102-2.008-0.301-3.112c-0.502-1.706-1.607-3.012-4.92-3.313c-1.605-0.201-11.645-0.401-13.854-0.401
			c-0.4,0-0.502,0.401-0.502,0.903v6.826c0,2.911-0.1,10.139,0,12.648c0.201,5.823,2.912,7.128,11.947,7.128
			c2.309,0,6.021-0.101,8.332-1.104c2.207-1.004,3.211-2.811,3.814-6.324c0.201-0.903,0.4-1.305,1.004-1.305
			c0.703,0,0.803,1.104,0.803,2.008c0,1.907-0.703,7.729-1.205,9.436c-0.602,2.209-1.404,2.209-4.719,2.209
			c-6.625,0-11.945-0.101-16.262-0.301c-4.316-0.101-7.629-0.201-10.24-0.201c-1.004,0-2.91,0.101-5.02,0.101
			c-2.107,0.101-4.316,0.2-6.123,0.2c-1.104,0-1.707-0.301-1.707-0.903c0-0.401,0.301-0.903,1.406-0.903
			c1.305,0,2.309-0.101,3.111-0.301c1.807-0.402,2.309-2.008,2.611-4.518c0.4-3.614,0.4-10.34,0.4-18.17V61.687z"/>
		<path d="M987.547,61.687c0-12.95,0-15.359-0.1-18.069c-0.201-2.912-1.004-3.815-3.814-4.618c-0.703-0.201-2.209-0.301-3.514-0.301
			c-0.904,0-1.506-0.302-1.506-0.904c0-0.602,0.701-0.803,2.008-0.803c4.617,0,10.238,0.201,12.045,0.201
			c3.012,0,11.043-0.201,13.754-0.201c5.621,0,12.047,0.502,16.766,3.614c2.51,1.706,6.223,6.023,6.223,11.745
			c0,6.324-3.613,11.946-12.246,18.873c7.83,9.637,14.053,17.367,19.375,22.688c4.918,4.919,8.029,5.32,9.436,5.621
			c0.904,0.201,1.406,0.201,2.107,0.201c0.703,0,1.105,0.502,1.105,0.903c0,0.703-0.604,0.903-1.707,0.903h-8.432
			c-4.92,0-7.33-0.502-9.639-1.706c-3.814-1.907-7.127-5.923-12.047-12.549c-3.512-4.617-7.227-10.34-8.332-11.645
			c-0.502-0.502-1.004-0.603-1.605-0.603l-7.93-0.201c-0.402,0-0.703,0.201-0.703,0.703v1.205c0,7.931,0.1,14.556,0.502,18.17
			c0.301,2.51,0.703,4.115,3.412,4.518c1.305,0.2,3.213,0.301,4.316,0.301c0.703,0,1.105,0.502,1.105,0.903
			c0,0.603-0.703,0.903-1.807,0.903c-5.121,0-12.449-0.301-13.754-0.301c-1.707,0-7.328,0.301-10.842,0.301
			c-1.104,0-1.707-0.301-1.707-0.903c0-0.401,0.301-0.903,1.406-0.903c1.305,0,2.309-0.101,3.111-0.301
			c1.807-0.402,2.309-2.008,2.611-4.518c0.4-3.614,0.4-10.34,0.4-18.17V61.687z M998.791,68.313c0,0.903,0.201,1.204,0.803,1.506
			c1.908,0.602,4.518,0.803,6.727,0.803c3.514,0,4.717-0.301,6.223-1.405c2.711-1.907,5.723-5.622,5.723-12.649
			c0-12.046-8.232-15.158-13.451-15.158c-2.209,0-4.316,0.101-5.221,0.301c-0.602,0.201-0.803,0.502-0.803,1.205V68.313z"/>
		<path d="M1060.225,79.957c-0.502,0-0.602,0.101-0.803,0.603l-4.719,11.544c-0.902,2.108-1.305,4.217-1.305,5.221
			c0,1.506,0.803,2.409,3.514,2.409h1.305c1.105,0,1.305,0.401,1.305,0.903c0,0.703-0.502,0.903-1.404,0.903
			c-2.912,0-7.027-0.301-9.838-0.301c-0.904,0-5.621,0.301-10.24,0.301c-1.104,0-1.605-0.2-1.605-0.903
			c0-0.502,0.301-0.903,1.004-0.903c0.803,0,1.807-0.101,2.609-0.101c4.016-0.603,5.521-3.212,7.328-7.529l23.09-53.306
			c1.004-2.409,1.707-3.413,2.609-3.413c1.305,0,1.707,0.804,2.611,2.711c2.107,4.718,16.865,39.251,22.486,52.201
			c3.412,7.73,5.922,8.834,7.529,9.136c1.305,0.2,2.309,0.301,3.313,0.301c0.803,0,1.205,0.301,1.205,0.903
			c0,0.703-0.502,0.903-3.814,0.903c-3.113,0-9.537,0-16.967-0.2c-1.605-0.101-2.609-0.101-2.609-0.703
			c0-0.502,0.201-0.803,1.104-0.903c0.604-0.101,1.205-0.903,0.803-1.907l-6.826-17.267c-0.199-0.502-0.502-0.603-0.902-0.603
			H1060.225z M1079.098,75.239c0.402,0,0.502-0.201,0.402-0.502l-8.332-21.383c-0.102-0.302-0.201-0.804-0.402-0.804
			c-0.301,0-0.4,0.502-0.502,0.804l-8.533,21.282c-0.201,0.401,0,0.603,0.301,0.603H1079.098z"/>
	</g>
</g>
</svg>
