<?xml version="1.0" encoding="UTF-8" standalone="no"?>
<!-- Generator: Adobe Illustrator 16.0.0, SVG Export Plug-In . SVG Version: 6.00 Build 0)  -->

<svg
   version="1.1"
   x="0px"
   y="0px"
   width="654.12097"
   height="541.17902"
   viewBox="0 0 654.121 541.179"
   enable-background="new 0 0 654.121 541.179"
   xml:space="preserve"
   id="svg111"
   sodipodi:docname="logo-dragon-de-madera.svg"
   inkscape:export-filename="logo-dragon-de-madera-blanco.svg"
   inkscape:export-xdpi="96"
   inkscape:export-ydpi="96"
   xmlns:inkscape="http://www.inkscape.org/namespaces/inkscape"
   xmlns:sodipodi="http://sodipodi.sourceforge.net/DTD/sodipodi-0.dtd"
   xmlns="http://www.w3.org/2000/svg"
   xmlns:svg="http://www.w3.org/2000/svg"><defs
   id="defs115" /><sodipodi:namedview
   id="namedview113"
   pagecolor="#ffffff"
   bordercolor="#000000"
   borderopacity="0.25"
   inkscape:showpageshadow="2"
   inkscape:pageopacity="0.0"
   inkscape:pagecheckerboard="0"
   inkscape:deskcolor="#d1d1d1"
   showgrid="false" />


<g
   id="Capa_3">
	<g
   id="g108">
		<path
   d="M 620.657,266.968 C 609.874,231.034 611.384,197.948 646.108,221.07 523.6,55.309 391.63,11.712 344.457,4.814 c -19.942,-2.917 -23.774,9.457 -18.985,20.371 4.885,11.135 17.413,28.589 32.792,43.875 -9.833,3.537 -30.406,8.074 -44.051,8.148 5.785,-2.661 24.976,-14.041 27.349,-22.172 -9.377,5.176 -43.849,23.941 -62.247,20.9 13.891,-6.233 31.447,-20.188 36.99,-34.014 -7.018,6.729 -33.194,24.609 -50.708,29.29 2.969,-2.143 11.237,-10.31 12.467,-14.667 -7.938,5.982 -23.854,12.423 -32.913,13.502 3.219,-2.934 12.596,-13.358 14.321,-17.384 -11.332,8.225 -39.578,26.443 -58.386,31.619 17.923,-11.28 32.763,-29.002 34.487,-39.125 -11.236,12.661 -36.602,30.692 -53.036,37.766 3.968,-7.132 17.707,-33.215 14.839,-43.546 -9.943,27.413 -46.2,55.474 -58.884,63.303 2.416,-3.566 6.969,-14.861 6.235,-19.304 -4.919,8.304 -19.845,22.647 -24.935,22.97 7.315,-9.215 21.017,-26.273 31.211,-44.215 8.636,-15.204 14.85,-31.006 11.496,-43.59 -8.498,24.588 -32.203,56.035 -46.331,71.198 1.165,-3.235 2.42,-10.462 1.644,-15.617 -5.177,12.467 -25.066,40.766 -32.939,46.719 -2.748,2.08 -1.704,-8.131 -0.409,-14.559 -4.4,4.961 -14.969,25.839 -18.852,40.635 -3.882,14.796 -9.662,23.423 -11.862,23.452 -0.862,0.011 -1.661,-1.604 -1.733,-5.237 -3.883,5.392 -7.843,20.874 -7.843,25.417 0,4.543 1.021,16.034 5.307,17.12 1.598,0.404 8.54,-2.173 10.935,-2.043 0.409,-5.694 5.306,-14.322 12.531,-11.302 -2.632,-6.19 0.086,-10.029 7.031,-7.786 -1.984,-6.643 5.09,-10.439 10.029,-8.649 0.107,-1.165 1.078,-2.178 3.321,-1.639 3.192,1.251 -1.467,8.8 -7.872,7.527 0.518,3.257 0.625,8.218 -6.881,6.514 0.107,5.176 -1.014,7.182 -7.333,6.125 0.927,5.931 1.121,7.894 -5.78,8.023 0.582,2.847 3.925,6.514 8.627,6.643 4.702,0.129 10.547,-5.953 13.523,-8.865 2.977,-2.912 17.945,-12.1 23.92,-16.025 5.975,-3.925 8.194,-7.221 12.473,-8.318 5.608,-1.438 13.206,1.025 17.255,1.093 -10.381,-6.988 -4.456,-7.736 12.481,-11.992 -8.569,-2.818 -13.646,-1.869 -17.901,-6.125 10.583,-14.379 61.472,-45.466 120.569,-43.137 105.254,-1.38 195.612,81.041 200.328,199.293 C 461.384,433.565 374.269,526.053 260.032,525.27 117.392,524.294 60.911,400.636 55.174,334.865 c 4.973,4.824 11.991,12.121 23.251,20.878 C 61.372,322.556 52.974,278.442 88.001,249.022 46.102,258.484 -4.398,350.48 6.903,401.124 9.319,387.319 21.569,347.72 35.114,334.089 c 3.825,40.319 22.777,115.779 96.196,163.23 105.107,67.931 206.08,35.142 261.757,-1.381 50.604,-33.196 86.904,-27.952 72.699,20.59 16.564,-21.107 27.205,-41.238 36.351,-70.283 12.531,-39.8 41.985,-59.643 79.372,-17.198 -5.425,-47.374 -4.901,-77.549 4.831,-88.976 14.004,-16.445 41.849,-0.079 62.506,29.606 -5.063,-34.05 -16.953,-65.338 -28.169,-102.709 z M 94.845,148.341 c -1.978,6.558 -7.361,9.576 -9.455,8.072 -3.097,-2.226 6.142,-16.765 15.596,-22.178 0.769,1.357 -3.28,4.616 -6.141,14.106 z M 342.799,80.788 c 3.421,-1.928 12.151,-5.192 16.996,-10.222 4.607,4.481 9.452,8.749 14.407,12.58 -8.454,-2.185 -23.352,-2.587 -31.403,-2.358 z m 150.289,333.881 c 7.938,-31.404 12.192,-101.459 10.353,-144.596 7.075,41.412 6.096,116.298 -10.353,144.596 z m 66.343,-35.315 c -11.359,-71.551 -65.367,-187.215 -93.146,-226.039 45.439,54.181 94.21,163.922 93.146,226.039 z M 372.361,47.228 C 486.932,125.91 578.987,215.031 622.211,319.422 557.505,201.572 478.349,131 372.361,47.228 Z"
   id="path104" />
		<path
   d="m 376.761,393.963 c -9.748,-19.671 -39.513,-54.265 -43.31,-60.938 -2.502,-4.228 -2.968,-5.379 3.538,-6.744 6.988,-1.467 44.215,-4.486 44.285,-22.36 0.1,-24.832 -60.548,-45.624 -76.565,-56.021 -8.864,-5.753 -5.422,-10.525 -9.994,-23.38 -3.198,-8.984 -14.581,-26.27 -36.494,-26.27 -21.914,0 -33.299,17.286 -36.494,26.27 -4.572,12.855 -1.132,17.626 -9.994,23.38 -16.018,10.396 -76.668,31.188 -76.568,56.021 0.071,17.874 37.3,20.894 44.288,22.36 6.503,1.365 6.039,2.517 3.537,6.744 -3.796,6.673 -33.561,41.267 -43.311,60.938 -9.749,19.671 -4.4,33.905 4.401,33.905 8.8,0 73.333,0 79.113,0 5.78,0 27.004,-52.626 35.027,-52.626 8.023,0 29.247,52.626 35.027,52.626 5.78,0 70.313,0 79.113,0 8.8,0 14.15,-14.234 4.401,-33.905 z"
   id="path106" />
	</g>
</g>
<path
   style="fill:#ffffff;stroke-width:0.627818"
   d="m 240.76816,535.7198 c -45.1946,-4.06 -90.56922,-22.59657 -127.72963,-52.18049 C 104.61661,476.83449 88.615766,460.59077 81.999256,452.02888 63.927,428.64302 51.333152,403.72338 43.404112,375.66005 39.823313,362.9865 35.785619,342.13148 35.785619,336.30991 c 0,-2.8025 -1.121036,-2.4589 -4.017379,1.23135 -7.680258,9.78544 -17.78661,33.65065 -23.190584,54.7624 -0.8280532,3.23496 -1.7015723,5.56457 -1.9411539,5.17693 -0.2395816,-0.38766 -0.5982928,-4.16451 -0.797136,-8.39302 C 4.4153835,358.8058 19.807801,316.92735 44.454347,284.02703 c 6.543272,-8.73453 17.029532,-19.64307 23.663893,-24.61686 4.481076,-3.35946 14.737466,-8.91083 16.463131,-8.91083 0.550383,0 -0.781345,1.8395 -3.147929,4.34821 -19.350104,20.51212 -23.219224,49.15934 -11.18214,82.7933 1.322203,3.69449 3.29266,8.66884 4.378791,11.05411 1.086138,2.38527 1.859697,4.45195 1.719028,4.59263 -0.359984,0.35998 -8.410474,-6.61403 -15.300118,-13.25424 -3.197482,-3.08171 -5.922019,-5.48823 -6.054528,-5.34781 -0.436934,0.46301 1.511834,13.78596 3.102981,21.21384 6.695708,31.25731 21.296249,63.38573 40.604556,89.35014 19.607598,26.36689 43.094308,46.13114 71.122728,59.85033 20.57458,10.07073 39.55644,15.67645 64.03742,18.91152 11.84165,1.56483 42.07429,1.56277 53.36452,-0.004 23.41347,-3.24838 42.68588,-9.11737 62.56423,-19.05256 10.88581,-5.44072 25.27615,-14.60147 34.43364,-21.92012 7.55225,-6.03575 23.38808,-21.98316 29.4414,-29.64886 22.73199,-28.78695 36.50637,-61.81301 41.93805,-100.55255 1.59506,-11.3762 1.58669,-42.74288 -0.0146,-54.62015 -5.89026,-43.69056 -20.77109,-78.88768 -46.70772,-110.47618 -23.17068,-28.21983 -57.61103,-51.20398 -92.57728,-61.78247 -21.80299,-6.59615 -40.62384,-8.94256 -67.19852,-8.3777 -18.27393,0.38843 -27.76143,1.59615 -42.80921,5.44943 -19.21715,4.92107 -38.09462,13.00098 -53.10915,22.73183 -9.51852,6.16892 -18.22662,14.03499 -17.26315,15.5939 0.78576,1.27138 5.11323,3.00841 10.0007,4.01424 7.09652,1.46045 7.17684,1.2814 -1.67097,3.72502 -5.9903,1.65444 -8.64548,3.0558 -8.64548,4.56298 0,0.53655 0.86574,1.84129 1.92386,2.89941 l 1.92387,1.92386 -2.39473,-0.40082 c -5.72807,-0.95873 -10.70443,-1.13439 -13.17387,-0.46501 -1.43963,0.39023 -4.54733,2.20721 -6.906,4.03772 -2.35866,1.83052 -9.43587,6.64733 -15.72713,10.70402 -6.29126,4.05669 -13.636729,9.37805 -16.323268,11.82525 -6.131935,5.58566 -9.450016,7.19774 -12.768447,6.2035 -1.333071,-0.39939 -3.250597,-1.72248 -4.409831,-3.04278 l -2.051122,-2.3361 2.618123,-0.51776 c 3.125297,-0.61805 4.16495,-2.17117 3.642104,-5.44086 -0.364424,-2.27899 -0.339512,-2.31282 1.503862,-2.04227 2.625566,0.38535 4.768723,-1.20381 5.276947,-3.91287 0.384037,-2.0471 0.599535,-2.23306 2.587834,-2.23306 2.856992,0 4.680188,-1.83428 4.680188,-4.70864 0,-1.97801 0.172349,-2.19759 1.726499,-2.19971 3.915983,-0.005 8.320377,-4.94598 6.434663,-7.21812 -0.948181,-1.14249 -3.514205,-1.2379 -4.206104,-0.15639 -0.276133,0.43162 -1.716014,0.81014 -3.199736,0.84114 -3.617663,0.0756 -5.858973,1.82175 -7.033501,5.47968 -0.924725,2.87996 -0.989629,2.93296 -3.595481,2.9362 -3.328352,0.004 -4.92294,1.95617 -4.371886,5.35191 0.342701,2.1118 0.287403,2.18528 -1.646326,2.18755 -4.088593,0.005 -7.835928,3.68302 -9.352738,9.18026 l -0.714783,2.59052 -4.855075,1.10888 c -2.670291,0.60987 -5.288508,0.94254 -5.818258,0.73926 -2.56787,-0.98539 -4.769129,-7.97254 -4.785772,-15.19082 -0.01028,-4.45757 1.636255,-11.6974 4.390464,-19.30494 1.987449,-5.48963 3.125868,-7.29401 3.125868,-4.95444 0,3.80616 1.594397,4.1236 4.438985,0.8838 2.858277,-3.2554 6.319592,-10.98585 9.070431,-20.25776 1.280567,-4.31625 3.423172,-10.59993 4.76134,-13.96374 2.555665,-6.42429 9.634927,-20.80792 11.821667,-24.01924 l 1.282525,-1.88345 -0.399556,6.105 c -0.361918,5.52982 -0.292255,6.14618 0.739432,6.54207 2.978537,1.14297 21.979832,-23.365351 30.992052,-39.974286 1.30674,-2.40824 2.52851,-4.225999 2.71504,-4.039468 0.44046,0.44047 -0.0257,5.430216 -0.86596,9.269988 -0.36301,1.658808 -0.51325,3.162802 -0.33385,3.342195 0.51188,0.511879 11.33758,-12.374309 18.48778,-22.006612 C 145.6521,52.9435 154.74041,37.888709 159.8202,26.122591 l 2.68106,-6.210029 0.45063,3.005003 c 2.14424,14.298843 -10.76075,40.852441 -35.39264,72.824662 -4.52241,5.870093 -7.95832,10.764833 -7.63535,10.877193 2.25808,0.78556 15.54559,-10.278882 21.2973,-17.734157 1.49953,-1.94368 2.86718,-3.393217 3.0392,-3.221195 0.53739,0.537393 -1.78156,7.986672 -3.96794,12.746385 -1.14995,2.503427 -1.93772,4.551677 -1.7506,4.551677 0.74705,0 12.63663,-8.616879 18.02205,-13.06134 7.66494,-6.325698 19.58284,-18.013231 25.22913,-24.741461 5.5874,-6.658054 8.96485,-11.572354 12.57803,-18.301409 l 2.74276,-5.108031 0.0105,2.597994 c 0.0222,5.507104 -5.34048,20.227786 -11.94222,32.78144 l -3.08798,5.872 1.71303,-0.410681 c 0.94216,-0.22587 4.53821,-1.975398 7.99121,-3.887838 12.36751,-6.849738 26.84818,-17.176953 37.51212,-26.752626 2.67607,-2.402977 4.86558,-4.01312 4.86558,-3.578095 0,3.025963 -9.70114,16.028335 -17.0971,22.915112 -4.14299,3.857765 -12.83595,10.706524 -15.43736,12.162346 -2.50698,1.402984 0.034,1.092296 4.84884,-0.592855 10.65099,-3.727776 29.92667,-14.136889 45.10757,-24.358669 3.19402,-2.150636 5.80432,-3.691073 5.80064,-3.423191 -0.009,0.631139 -3.64952,5.144699 -8.75941,10.858945 l -4.05745,4.537336 2.80182,-0.449015 c 6.53454,-1.047219 22.63181,-7.469105 27.61292,-11.015967 1.02913,-0.73281 1.87116,-1.127351 1.87116,-0.87676 0,0.919723 -5.31753,7.312547 -8.35158,10.040426 -1.718,1.544626 -2.99216,2.939882 -2.83148,3.100572 0.62628,0.626274 8.76404,-2.634399 17.14934,-6.871459 8.64743,-4.369526 20.41381,-11.701916 27.41733,-17.085522 1.95925,-1.506071 3.73224,-2.738312 3.93998,-2.738312 0.77672,0 -1.64234,3.822145 -5.28447,8.349579 -5.85355,7.276393 -16.84742,16.035432 -26.55485,21.156781 -1.63515,0.86266 -2.973,1.780844 -2.973,2.040409 0,0.259571 1.6581,0.471943 3.68467,0.471943 11.38187,0 28.10312,-5.508619 48.99281,-16.140117 4.28369,-2.180114 7.88248,-3.869881 7.99732,-3.755038 0.11485,0.114845 -0.47621,1.137305 -1.31346,2.272135 -2.98404,4.044644 -12.23007,11.048166 -21.1124,15.991867 l -4.03287,2.2446 3.90228,0.0072 c 7.73496,0.01425 24.92625,-2.995168 36.22571,-6.341482 2.44589,-0.724344 4.54594,-1.409727 4.66677,-1.523067 0.12082,-0.113346 -2.6537,-3.370014 -6.16561,-7.237041 -11.40986,-12.563603 -20.98264,-25.843746 -25.58887,-35.498952 -2.04148,-4.279188 -2.36375,-5.558826 -2.36543,-9.392381 -0.003,-5.63307 1.62311,-8.3465922 6.41734,-10.7122275 5.79241,-2.8581441 14.16759,-2.1222972 34.38888,3.0214458 30.82686,7.8415087 68.33289,24.1474117 102.02041,44.3537867 26.34737,15.803631 54.09478,36.262521 80.69694,59.499969 13.23356,11.55974 42.21044,40.44509 54.41484,54.24294 15.2973,17.29457 41.77051,49.96925 41.06051,50.67921 -0.10968,0.10969 -2.28903,-0.79078 -4.84305,-2.00108 -7.87895,-3.73372 -13.96464,-4.1157 -18.09173,-1.13557 -0.89072,0.64318 -2.46705,2.85191 -3.50295,4.90828 -1.86834,3.70886 -1.88331,3.82196 -1.86645,14.09785 0.0245,14.90206 1.14382,19.80565 13.47158,59.01488 9.08291,28.8888 10.47491,33.5969 13.8289,46.77243 3.05817,12.01335 5.87594,25.66932 5.51815,26.74271 -0.10617,0.31854 -1.74597,-1.45866 -3.64405,-3.94933 -4.32158,-5.67077 -13.5422,-15.03267 -18.58304,-18.86773 -15.92625,-12.11662 -30.64987,-13.87272 -38.98252,-4.64947 -9.13077,10.10667 -10.90106,34.56283 -6.08014,83.99572 l 0.40637,4.16685 -4.67085,-4.50718 c -25.01329,-24.13681 -48.03279,-23.78747 -64.15591,0.97361 -4.47325,6.86979 -6.50155,11.39965 -11.09169,24.77138 -6.92173,20.16401 -12.59292,32.88438 -20.42331,45.80913 -4.50112,7.42948 -12.80211,19.34691 -13.19929,18.94973 -0.13483,-0.13483 0.17477,-2.43983 0.688,-5.12222 2.2675,-11.85117 0.61927,-21.93359 -4.47613,-27.38098 -3.91707,-4.18766 -7.85063,-5.75689 -15.30872,-6.10713 -14.15006,-0.66452 -31.44306,5.77091 -54.69166,20.35299 -37.60821,23.58876 -71.59978,35.86051 -111.05226,40.09243 -7.70217,0.82618 -34.49134,1.13797 -41.74989,0.48591 z M 495.70999,410.30516 c 4.76069,-10.30388 8.53014,-27.64676 10.71746,-49.30988 1.36211,-13.49035 1.56673,-53.39794 0.33961,-66.23478 -1.15557,-12.08832 -2.67413,-23.7966 -3.15139,-24.29762 -0.23079,-0.2423 -0.32721,7.24443 -0.21426,16.63717 0.48581,40.39615 -3.42122,92.42893 -9.00187,119.88447 -1.78351,8.77444 -1.6671,8.0031 -1.20774,8.0031 0.19512,0 1.3283,-2.10711 2.51819,-4.68246 z m 64.30356,-31.68103 c 0,-5.34309 -1.75109,-22.28044 -3.16046,-30.5693 -8.65703,-50.91443 -37.71693,-119.56639 -72.25453,-170.69628 -7.00218,-10.36611 -17.05881,-23.69344 -18.16453,-24.07215 -0.34537,-0.11829 1.45635,2.98941 4.00384,6.906 14.67928,22.56844 34.49087,61.57319 50.41654,99.25926 18.14715,42.94293 31.96775,85.23122 37.03353,113.31521 0.63843,3.53932 1.37786,6.43513 1.64319,6.43513 0.26534,0 0.48242,-0.26004 0.48242,-0.57787 z m 58.65249,-68.26257 C 585.71163,235.77647 524.74161,163.55672 434.76388,92.527103 415.85142,77.597355 373.2047,46.596191 372.52041,47.28048 c -0.15159,0.151592 7.42271,6.448423 16.83179,13.992958 40.52885,32.497498 69.12206,57.104432 95.9305,82.556522 53.88131,51.15523 96.67752,105.33495 130.9773,165.8164 3.07649,5.42483 5.6784,9.62012 5.78203,9.32288 0.10363,-0.29724 -1.41556,-4.1707 -3.37599,-8.60768 z M 89.784719,156.00925 c 2.113769,-1.09307 4.280224,-4.56047 6.47021,-10.3555 0.848188,-2.24445 2.27712,-5.35215 3.175396,-6.906 0.898275,-1.55385 1.636635,-3.33316 1.640785,-3.95402 0.006,-0.96815 -0.38603,-0.85804 -2.757466,0.77355 -6.340415,4.36232 -13.55823,14.54138 -13.55823,19.12076 0,2.01075 0.18058,2.26643 1.600723,2.26643 0.880395,0 2.423257,-0.42535 3.428582,-0.94522 z M 374.17946,82.990028 c 0,-0.280364 -0.84709,-1.13603 -1.88242,-1.901484 -1.03533,-0.765449 -4.26384,-3.516239 -7.17449,-6.112856 l -5.29207,-4.721128 -2.98706,2.280072 c -1.64288,1.254041 -5.54794,3.592989 -8.67791,5.19766 l -5.69085,2.917589 9.56392,0.422898 c 9.02056,0.398878 20.2267,1.559186 20.82364,2.156121 0.45675,0.456757 1.31724,0.300712 1.31724,-0.238872 z"
   id="path361" /><path
   style="fill:#ffffff;stroke-width:0.627818"
   d="m 140.18567,426.31062 c -4.5985,-2.80384 -6.44674,-11.79548 -4.29835,-20.91124 2.77438,-11.77182 10.4541,-23.79295 37.96354,-59.42463 8.23772,-10.66993 11.35542,-15.32604 11.35542,-16.9587 0,-1.48574 -3.44918,-2.60083 -13.59957,-4.39662 -17.92145,-3.17063 -27.19175,-6.77239 -32.43185,-12.60065 -3.17137,-3.52732 -3.9523,-5.95539 -3.34364,-10.39604 1.17836,-8.59704 10.45995,-18.11591 27.59568,-28.30117 3.86411,-2.29678 15.93314,-8.59147 26.82007,-13.98822 10.88693,-5.39675 21.12511,-10.7679 22.75152,-11.9359 3.70048,-2.65749 5.04264,-5.40859 6.74313,-13.82184 1.56403,-7.7381 3.01313,-11.43801 6.64973,-16.97844 5.27432,-8.03553 12.77409,-13.84411 21.28281,-16.48354 6.47772,-2.00942 15.22366,-1.86392 22.02231,0.36635 8.61784,2.82706 16.25233,9.06821 21.34232,17.44722 2.70997,4.4611 4.20675,8.74536 5.95237,17.03759 1.60028,7.60179 2.30236,9.11777 5.44701,11.76142 1.30207,1.09464 11.12547,6.30792 21.82977,11.58508 20.90343,10.30528 28.78852,14.63682 37.64684,20.68069 13.57814,9.26413 20.71207,19.95513 18.58552,27.85252 -2.25501,8.37448 -14.03822,14.12287 -36.99005,18.04545 -10.54177,1.80163 -12.02241,2.32654 -12.02241,4.26208 0,2.06657 2.12705,5.18413 14.25363,20.89118 28.94096,37.48604 35.63395,49.39352 35.62193,63.37487 -0.005,6.1909 -1.06631,9.17828 -4.34797,12.24245 l -1.68095,1.56954 -41.14833,0.17028 c -31.86291,0.13186 -41.35847,-0.004 -42.07951,-0.60253 -1.90334,-1.57962 -5.86676,-8.14152 -13.95915,-23.11092 -11.47565,-21.2278 -16.73417,-28.87962 -19.84679,-28.87962 -1.58977,0 -5.77907,4.36606 -8.92749,9.30416 -1.69083,2.65196 -6.82942,11.74343 -11.4191,20.20328 -8.85993,16.33092 -12.49847,22.1997 -14.15833,22.83665 -0.56272,0.21593 -19.1518,0.39155 -41.30908,0.39026 -38.88392,-0.003 -40.35608,-0.0451 -42.30103,-1.23101 z"
   id="path363" /></svg>
